<?xml version="1.0" encoding="utf-8"?>
<!-- Generator: Adobe Illustrator 22.0.1, SVG Export Plug-In . SVG Version: 6.00 Build 0)  -->
<svg version="1.1" id="Layer_1" xmlns="http://www.w3.org/2000/svg" xmlns:xlink="http://www.w3.org/1999/xlink" x="0px" y="0px"
	 viewBox="0 0 23 23" style="enable-background:new 0 0 23 23;" xml:space="preserve">
<style type="text/css">
	.st0{fill:#55ACEE;}
	.st1{fill:#FFFFFF;}
</style>
<g>
	<path class="st0" d="M0,0v23h23V0H0z M18.9,8.3v0.4c0,4.6-3.5,9.8-9.8,9.8c-2,0-3.8-0.5-5.3-1.5h0.8c1.6,0,3.1-0.6,4.3-1.5
		c-1.5,0-2.8-1-3.2-2.4c0.2,0.1,0.4,0.1,0.6,0.1c0.3,0,0.6,0,0.9-0.1c-1.6-0.3-2.8-1.7-2.8-3.4c0.5,0.2,1,0.4,1.6,0.4
		C5,9.5,4.4,8.4,4.4,7.2c0-0.6,0.2-1.2,0.5-1.7C6.6,7.6,9.1,8.9,12,9c-0.1-0.3-0.1-0.5-0.1-0.8c0-1.9,1.5-3.4,3.4-3.4
		c1,0,1.9,0.4,2.5,1.1c0.8-0.1,1.5-0.4,2.2-0.8c-0.2,0.8-0.8,1.5-1.5,1.9c0.7,0,1.4-0.2,2-0.5C20,7.2,19.4,7.8,18.9,8.3z"/>
	<path class="st1" d="M20,5.1c-0.7,0.4-1.4,0.7-2.2,0.8c-0.6-0.7-1.5-1.1-2.5-1.1c-1.9,0-3.4,1.5-3.4,3.4c0,0.3,0,0.5,0.1,0.8
		C9.1,8.9,6.6,7.6,4.9,5.5C4.6,6,4.4,6.6,4.4,7.2C4.4,8.4,5,9.5,6,10.1c-0.6,0-1.1-0.2-1.6-0.4c0,1.7,1.2,3.1,2.8,3.4
		c-0.3,0.1-0.6,0.1-0.9,0.1c-0.2,0-0.4,0-0.6-0.1c0.4,1.4,1.7,2.4,3.2,2.4C7.7,16.4,6.2,17,4.6,17H3.8c1.5,1,3.3,1.5,5.3,1.5
		c6.3,0,9.8-5.2,9.8-9.8V8.3c0.5-0.5,1.1-1.1,1.6-1.8c-0.6,0.3-1.3,0.5-2,0.5C19.2,6.6,19.8,5.9,20,5.1z"/>
</g>
</svg>
